:FULLY-SPECIFIED
:FORCE-ALL-JOINTS-BE-3DOF
:DEGREES
1529
root -4.45894 15.3216 20.0365 548.575 -14.8806 545.127
lfemur -38.3185 17.8406 -9.35829
ltibia 76.0667 -0 0
lfoot -16.4894 24.3786 -0.0497896
ltoes -27.1056 0 0
rfemur -39.6451 -2.05221 13.9152
rtibia 66.1475 -0 0
rfoot -13.3228 -21.5021 -0.177744
rtoes -28.9919 0 0
lowerback 17.3152 0.731913 5.30705
upperback -1.39365 2.27274 3.83078
thorax -11.2672 0.780763 0.620135
lowerneck -4.63349 7.59632 3.87688
upperneck 1.59557 10.1469 -9.15882
head 2.07487 4.8681 -3.28872
lclavicle 3.77691e-15 2.3059e-14 0
lhumerus -15.6823 -26.6996 80.8089
lradius 85.9845 0 0
lwrist -15.0524 0 0
lhand -30.0409 71.1651 0
lfingers 7.12502 0 0
lthumb -3.35692 -101.118 0
rclavicle 3.77691e-15 2.3059e-14 0
rhumerus -52.327 35.555 -91.3912
rradius 107.237 0 0
rwrist -53.5546 0 0
rhand 15.1559 -26.124 0
rfingers 7.12502 0 0
rthumb 39.9984 -51.3505 0
1530
root -4.44989 15.3256 20.0573 548.282 -17.7309 545.098
lfemur -37.8635 17.6472 -9.73587
ltibia 74.6529 -0 0
lfoot -16.9789 24.8608 0
ltoes -27.4312 0 0
rfemur -39.0882 -2.48088 13.5449
rtibia 66.9893 -0 0
rfoot -13.0546 -21.9086 -0.171084
rtoes -29.6544 0 0
lowerback 17.2957 0.75359 5.14247
upperback -1.34161 2.26573 3.69009
thorax -11.1967 0.792535 0.557268
lowerneck -4.78933 7.05737 3.77972
upperneck 1.39921 9.40031 -8.58263
head 1.9409 4.51438 -3.10941
lclavicle 7.55382e-15 2.06736e-14 0
lhumerus -14.6404 -20.2932 79.3915
lradius 76.6964 0 0
lwrist -14.1105 0 0
lhand -30.2428 69.9094 0
lfingers 7.12502 0 0
lthumb -3.55189 -99.8596 0
rclavicle 7.55382e-15 2.06736e-14 0
rhumerus -53.6557 33.4224 -92.0423
rradius 106.788 0 0
rwrist -54.5418 0 0
rhand 14.4139 -25.8397 0
rfingers 7.12502 0 0
rthumb 39.2997 -51.2732 0
1531
root -4.45661 15.3324 20.073 547.989 -20.9341 544.866
lfemur -37.4076 17.4566 -10.1146
ltibia 73.2391 -0 0
lfoot -16.9568 24.5463 -0.00157885
ltoes -27.7568 0 0
rfemur -38.5283 -2.90592 13.1703
rtibia 67.831 -0 0
rfoot -12.7865 -22.3151 -0.162521
rtoes -30.3169 0 0
lowerback 17.273 0.693686 4.87489
upperback -1.32235 2.134 3.57197
thorax -11.1691 0.751998 0.610919
lowerneck -4.842 6.508 3.44305
upperneck 1.31238 8.65902 -7.8065
head 1.80627 4.16558 -2.82061
lclavicle 1.07344e-14 3.4191e-14 0
lhumerus -12.9149 -13.8049 78.4313
lradius 67.5676 0 0
lwrist -12.5407 0 0
lhand -33.7408 67.7465 0
lfingers 7.12502 0 0
lthumb -6.92934 -97.6131 0
rclavicle 1.07344e-14 3.4191e-14 0
rhumerus -55.1178 31.3983 -92.5923
rradius 106.321 0 0
rwrist -55.5287 0 0
rhand 13.8429 -26.5892 0
rfingers 7.12502 0 0
rthumb 38.7614 -52.1772 0
1532
root -4.4718 15.3435 20.0828 547.709 -24.0063 544.757
lfemur -36.9509 17.2688 -10.4946
ltibia 71.8252 -0 0
lfoot -16.9347 24.2318 -0.00303643
ltoes -28.0823 0 0
rfemur -37.9654 -3.32727 12.7915
rtibia 68.6728 -0 0
rfoot -12.5185 -22.7215 -0.152056
rtoes -30.9795 0 0
lowerback 17.1529 0.713425 4.52244
upperback -1.30283 2.08962 3.58886
thorax -11.0912 0.759682 0.839779
lowerneck -4.90625 5.94287 3.00132
upperneck 1.34358 7.91134 -7.10161
head 1.72121 3.80688 -2.53618
lclavicle 1.11319e-14 -4.05521e-14 0
lhumerus -11.5506 -7.93415 77.7487
lradius 60.8299 0 0
lwrist -12.9149 0 0
lhand -37.7808 69.3439 0
lfingers 7.12502 0 0
lthumb -10.8278 -99.0448 0
rclavicle 1.11319e-14 -4.05521e-14 0
rhumerus -56.4417 29.5409 -92.8419
rradius 105.795 0 0
rwrist -56.9137 0 0
rhand 12.527 -27.6588 0
rfingers 7.12502 0 0
rthumb 37.519 -53.5873 0
1533
root -4.50539 15.3614 20.0866 547.637 -27.4267 544.433
lfemur -36.4933 17.084 -10.8757
ltibia 70.4114 -0 0
lfoot -16.9126 23.9174 -0.00437271
ltoes -28.4079 0 0
rfemur -37.3995 -3.74488 12.4083
rtibia 69.5146 -0 0
rfoot -12.2506 -23.1279 -0.139691
rtoes -31.642 0 0
lowerback 16.6943 0.592089 4.13883
upperback -1.2626 1.82717 3.55535
thorax -10.7948 0.670033 1.08814
lowerneck -4.87994 5.3698 2.62462
upperneck 1.25449 7.14636 -6.44874
head 1.59616 3.44163 -2.2851
lclavicle 2.82274e-14 1.11319e-14 0
lhumerus -10.5927 -1.97062 77.2202
lradius 56.102 0 0
lwrist -18.2951 0 0
lhand -38.5347 64.4429 0
lfingers 7.12502 0 0
lthumb -11.5549 -94.1044 0
rclavicle 2.82274e-14 1.11319e-14 0
rhumerus -57.5829 27.938 -92.9767
rradius 105.196 0 0
rwrist -58.3438 0 0
rhand 10.4483 -28.2168 0
rfingers 7.12502 0 0
rthumb 35.5514 -54.6423 0
